<svg xmlns="http://www.w3.org/2000/svg" width="40" height="40" viewBox="0 0 40 40">
  <defs>
    <style>
      .cls-1 {
        fill: #00abc9;
        fill-rule: evenodd;
      }
    </style>
  </defs>
  <path id="Forma_1" data-name="Forma 1" class="cls-1" d="M387.582,2868.58h1.291v1.29h-1.291v-1.29Zm2.581,0h1.291v1.29h-1.291v-1.29Zm2.582,0h1.291v1.29h-1.291v-1.29Zm15.482,0h14.191v1.29H408.227v-1.29ZM385,2866v29.64h10.1a17.165,17.165,0,0,0,9.657,10.27L405,2906l0.24-.09a17.165,17.165,0,0,0,9.657-10.27H425V2866H385Zm1.291,1.29H423.7v3.87h-37.41v-3.87Zm18.064,37.03a16.206,16.206,0,0,1-8.772-11.9h8.772v11.9Zm0-13.18H395.41c-0.116-.81-0.091-3.03-0.091-3.03a4.651,4.651,0,0,0,3.831-4.06h5.205v7.09Zm1.29,13.18v-11.89h8.772A16.21,16.21,0,0,1,405.645,2904.32Zm8.945-13.18h-8.945v-7.09h5.205a4.65,4.65,0,0,0,3.831,4.06A30.075,30.075,0,0,1,414.59,2891.14Zm0.712,3.22a18.251,18.251,0,0,0,.662-4.85v-2.64h-0.645a3.359,3.359,0,0,1-3.228-3.46v-0.65H397.909v0.65a3.353,3.353,0,0,1-3.228,3.46h-0.645v2.64a18.584,18.584,0,0,0,.662,4.85h-8.407v-21.91H423.7v21.91h-8.4Z" transform="translate(-385 -2866)"/>
</svg>
