<svg xmlns="http://www.w3.org/2000/svg" width="35" height="35" viewBox="0 0 35 35">
  <defs>
    <style>
      .cls-1 {
        fill: #00abc9;
        fill-rule: evenodd;
      }
    </style>
  </defs>
  <path id="Forma_1" data-name="Forma 1" class="cls-1" d="M1216.97,2895.49h1.13v1.13h-1.13v-1.13Zm2.82,0h1.13v1.13h-1.13v-1.13Zm-2.82-3.39h1.13v1.13h-1.13v-1.13Zm2.82,0h1.13v1.13h-1.13v-1.13Zm-2.82-3.39h1.13v1.13h-1.13v-1.13Zm2.82,0h1.13v1.13h-1.13v-1.13Zm-2.82-3.38h1.13v1.13h-1.13v-1.13Zm2.82,0h1.13v1.13h-1.13v-1.13Zm-2.82-3.39h1.13v1.13h-1.13v-1.13Zm2.82,0h1.13v1.13h-1.13v-1.13Zm5.09,16.93v-18.94l-9.03-5.42V2865h-23.72v33.87H1191V2900h35v-1.13h-1.12Zm-18.63.01h-4.52v-6.77h4.52v6.77Zm8.46,0h-7.34v-7.91h-6.77v7.9h-7.34v-32.74h21.45v32.75h0Zm1.13,0v-23.05l7.9,4.74v18.31h-7.9Zm-21.45-6.78v4.52h4.52v-4.52h-4.52Zm3.39,3.39h-2.26v-2.26h2.26v2.26Zm11.29-3.39v4.52h4.52v-4.52h-4.52Zm3.39,3.39h-2.26v-2.26h2.26v2.26Zm-18.07-11.3v4.52h4.52v-4.52h-4.52Zm3.39,3.4h-2.26v-2.26h2.26v2.26Zm11.29-3.4v4.52h4.52v-4.52h-4.52Zm3.39,3.4h-2.26v-2.26h2.26v2.26Zm-18.07-11.3v4.52h4.52v-4.52h-4.52Zm3.39,3.39h-2.26v-2.26h2.26v2.26Zm11.29-3.39v4.52h4.52v-4.52h-4.52Zm3.39,3.39h-2.26v-2.26h2.26v2.26Zm-18.07-11.29v4.52h4.52v-4.52h-4.52Zm3.39,3.39h-2.26v-2.26h2.26v2.26Zm11.29-3.39v4.52h4.52v-4.52h-4.52Zm3.39,3.39h-2.26v-2.26h2.26v2.26Zm-10.73,12.41v4.52h4.52v-4.52h-4.52Zm3.38,3.4h-2.26v-2.26h2.26v2.26Zm-3.38-11.3v4.52h4.52v-4.52h-4.52Zm3.38,3.39h-2.26v-2.26h2.26v2.26Zm-3.38-11.29v4.52h4.52v-4.52h-4.52Zm3.38,3.39h-2.26v-2.26h2.26v2.26Z" transform="translate(-1191 -2865)"/>
</svg>
