<svg xmlns="http://www.w3.org/2000/svg" width="41" height="53" viewBox="0 0 41 53">
  <defs>
    <style>
      .cls-1 {
        fill: #fff;
        fill-rule: evenodd;
      }
    </style>
  </defs>
  <path id="Forma_1" data-name="Forma 1" class="cls-1" d="M511.3,4351.95l3.675-2.91-0.02-4.71,2.045-4.24-2.035-4.23,0.021-4.71-3.676-2.92-2.014-4.24-4.568-1.04-3.655-2.95-4.568,1.07-4.558-1.07-3.654,2.95-4.569,1.04-2.014,4.24-3.685,2.92,0.02,4.71L476,4340.09l2.045,4.24-0.02,4.71,3.675,2.92,1.474,3.12-5.97,12.86,7.071-1.09,3.717,6.15,6.187-13.34,2.316-.55,1.827,0.43,6.25,13.46,3.717-6.15,7.07,1.09-5.762-12.42Zm-23.506,17.43-2.658-4.39-5.045.77,4.36-9.41,3.842,0.86,3.654,2.96Zm8.711-12.03-4.142.98-3.312-2.68-4.153-.94-1.828-3.86-3.343-2.65,0.021-4.28-1.859-3.84,1.859-3.85-0.021-4.27,3.343-2.65,1.828-3.86,4.153-.94,3.312-2.68,4.142,0.97,4.143-.97,3.312,2.68,4.153,0.94,1.827,3.86,3.343,2.65-0.021,4.27,1.859,3.84-1.859,3.84,0.021,4.28-3.343,2.65-1.827,3.86-4.153.94-3.312,2.68Zm15.968,8.42-5.046-.77-2.658,4.38-4.339-9.35,0.633,0.15,3.655-2.95,3.436-.78Zm-15.968-40.46a14.785,14.785,0,1,0,14.712,14.78A14.772,14.772,0,0,0,496.505,4325.31Zm0,27.86a13.075,13.075,0,1,1,13.009-13.08A13.06,13.06,0,0,1,496.505,4353.17Zm11.057-16.69h-8.451l-2.606-8.07-2.606,8.07h-8.451l6.832,4.99-2.607,8.08,6.832-4.99,6.832,4.99-2.606-8.08Zm-11.057,5.96-3.6,2.63,1.371-4.26-3.6-2.63h4.444l1.37-4.25,1.371,4.25H502.3l-3.6,2.63,1.412,4.26Z" transform="translate(-476 -4320)"/>
</svg>
