<svg xmlns="http://www.w3.org/2000/svg" width="38" height="37" viewBox="0 0 38 37">
  <defs>
    <style>
      .cls-1 {
        fill: #00abc9;
        fill-rule: evenodd;
      }
    </style>
  </defs>
  <path id="Forma_1" data-name="Forma 1" class="cls-1" d="M789.226,2898.79V2863H788v37h37.985v-1.21H789.226Zm34.321-21.24a2.443,2.443,0,0,0-2.452,2.43,2.378,2.378,0,0,0,.344,1.22l-3.4,3.37a2.473,2.473,0,0,0-1.233-.34,2.435,2.435,0,0,0-1.234.34l-1.563-1.55a2.339,2.339,0,0,0,.344-1.22,2.453,2.453,0,0,0-4.9,0,2.388,2.388,0,0,0,.344,1.22l-4.621,4.58a2.376,2.376,0,0,0-1.234-.34,2.428,2.428,0,0,0-1.233.34l-1.563-1.55a2.339,2.339,0,0,0,.344-1.22,2.453,2.453,0,0,0-4.906,0,2.388,2.388,0,0,0,.344,1.22l-2.789,2.76a2.473,2.473,0,0,0-1.233-.34,2.43,2.43,0,1,0,2.452,2.43,2.406,2.406,0,0,0-.344-1.22l2.789-2.76a2.477,2.477,0,0,0,1.234.34,2.435,2.435,0,0,0,1.234-.34l1.563,1.55a2.339,2.339,0,0,0-.344,1.22,2.453,2.453,0,0,0,4.9,0,2.388,2.388,0,0,0-.344-1.22l4.621-4.58a2.376,2.376,0,0,0,1.234.34,2.431,2.431,0,0,0,1.233-.34l1.563,1.55a2.366,2.366,0,0,0-.344,1.22,2.453,2.453,0,0,0,4.9,0,2.378,2.378,0,0,0-.344-1.22l3.4-3.37a2.473,2.473,0,0,0,1.233.34A2.43,2.43,0,1,0,823.547,2877.55ZM792.9,2892.12a1.215,1.215,0,1,1,1.226-1.22A1.229,1.229,0,0,1,792.9,2892.12Zm6.131-6.07a1.215,1.215,0,1,1,1.226-1.21A1.22,1.22,0,0,1,799.029,2886.05Zm4.9,4.85a1.215,1.215,0,1,1,1.226-1.21A1.22,1.22,0,0,1,803.927,2890.9Zm7.963-7.88a1.215,1.215,0,1,1,1.226-1.22A1.222,1.222,0,0,1,811.89,2883.02Zm4.9,4.85a1.215,1.215,0,1,1,1.227-1.22A1.222,1.222,0,0,1,816.8,2887.87Zm6.737-6.67a1.215,1.215,0,1,1,1.227-1.22A1.222,1.222,0,0,1,823.532,2881.2Z" transform="translate(-788 -2863)"/>
</svg>
