<svg xmlns="http://www.w3.org/2000/svg" width="34" height="34" viewBox="0 0 34 34">
  <defs>
    <style>
      .cls-1 {
        fill: #00abc9;
        fill-rule: evenodd;
      }
    </style>
  </defs>
  <path id="Forma_1" data-name="Forma 1" class="cls-1" d="M419.9,2733.9v-2.19h-1.1v-3.28h-1.1v-13.14h1.1V2712h1.1v-3.63L404,2701l-15.9,7.37V2712h1.1v3.29h1.1v13.14h-1.1v3.28h-1.1v2.19H387v1.1h34v-1.1h-1.1Zm-30.707-23v-1.83L404,2702.2l14.805,6.86v1.84H389.2Zm17.549,17.53v-13.14h1.1V2712h3.293v3.29h1.1v13.14h-1.1v3.28h-3.293v-3.28h-1.1Zm-10.97,0v-13.14h1.1V2712h3.293v3.29h1.091v13.14h-1.1v3.28h-3.293v-3.28h-1.091Zm-5.481-14.23v-2.19h5.481v2.19h-5.481Zm4.384,1.09v13.14h-3.293v-13.14h3.293Zm6.579,14.23h5.488v2.19h-5.488v-2.19Zm1.1-1.09v-13.14h3.293v13.14h-3.293Zm-1.1-14.23v-2.19h5.488v2.19h-5.488Zm10.97,15.32h5.481v2.19h-5.481v-2.19Zm1.1-1.09v-13.14h3.293v13.14h-3.293Zm-1.1-14.23v-2.19h5.481v2.19h-5.481Zm-21.933,15.32h5.481v2.19h-5.481v-2.19Zm28.518,4.38H389.2v-1.1h29.616v1.1ZM404,2704.34a2.735,2.735,0,1,0,2.744,2.74A2.739,2.739,0,0,0,404,2704.34Zm0,4.38a1.64,1.64,0,1,1,1.646-1.64A1.641,1.641,0,0,1,404,2708.72Z" transform="translate(-387 -2701)"/>
</svg>
