<svg xmlns="http://www.w3.org/2000/svg" width="34" height="34" viewBox="0 0 34 34">
  <defs>
    <style>
      .cls-1 {
        fill: #00abc9;
        fill-rule: evenodd;
      }
    </style>
  </defs>
  <path id="Forma_1" data-name="Forma 1" class="cls-1" d="M1190,2703v31.8h2.74v2.2h5.49v-2.2h17.54v2.2h5.49v-2.2H1224V2703h-34Zm7.13,32.9h-3.29v-1.1h3.29v1.1Zm23.03,0h-3.29v-1.1h3.29v1.1Zm2.74-2.19h-31.8V2704.1h31.8v29.61Zm-2.19-27.42h-27.42v25.23h27.42v-25.23h0Zm-26.33,24.13v-23.04h25.23v23.04h-25.23Zm9.33-18.65a7.13,7.13,0,1,0,7.13,7.13A7.14,7.14,0,0,0,1203.71,2711.77Zm4.63,10.99-0.75-.75-0.78.77,0.76,0.76a6.021,6.021,0,0,1-3.31,1.37v-1.07h-1.1v1.07a5.96,5.96,0,0,1-3.3-1.37l0.75-.76-0.78-.77-0.75.75a5.971,5.971,0,0,1-1.38-3.3h1.07v-1.1h-1.07v-0.01a5.971,5.971,0,0,1,1.38-3.3l0.75,0.75,0.78-.77-0.76-.76a6.021,6.021,0,0,1,3.31-1.37v1.07h1.1v-1.07a5.96,5.96,0,0,1,3.3,1.37l-0.75.76,0.77,0.77,0.76-.75a5.96,5.96,0,0,1,1.37,3.3h-1.07v1.1h1.07A5.991,5.991,0,0,1,1208.34,2722.76Zm-4.63-6.05a2.261,2.261,0,0,0-1.1.3l-1.23-1.21-0.78.77,1.22,1.23a2.158,2.158,0,0,0-.3,1.1A2.2,2.2,0,1,0,1203.71,2716.71Zm0,3.29a1.1,1.1,0,1,1,1.09-1.1A1.1,1.1,0,0,1,1203.71,2720Zm10.42-6.03v1.1h1.64v7.67h-1.64v1.1h2.74v-9.87h-2.74Z" transform="translate(-1190 -2703)"/>
</svg>
