<svg xmlns="http://www.w3.org/2000/svg" width="13.97" height="13.25" viewBox="0 0 13.97 13.25">
  <defs>
    <style>
      .cls-1 {
        fill: #009fe3;
        fill-rule: evenodd;
      }
    </style>
  </defs>
  <path id="phone_icon" data-name="phone icon" class="cls-1" d="M1268.76,4644.28l-2.16-2.01a1.182,1.182,0,0,0-1.59.03l-1.09,1.01c-0.07-.03-0.14-0.07-0.22-0.11a10.719,10.719,0,0,1-2.62-1.76,10.079,10.079,0,0,1-1.89-2.45,1.992,1.992,0,0,1-.12-0.19l0.73-.68,0.36-.34a0.992,0.992,0,0,0,.03-1.47l-2.16-2.02a1.182,1.182,0,0,0-1.59.03l-0.61.57,0.01,0.02a3.4,3.4,0,0,0-.5.82,2.987,2.987,0,0,0-.22.84c-0.29,2.2.79,4.21,3.73,6.95,4.05,3.77,7.32,3.49,7.46,3.47a3.791,3.791,0,0,0,1.79-.67l0.01,0.01,0.62-.57A1,1,0,0,0,1268.76,4644.28Z" transform="translate(-1255.09 -4634.03)"/>
</svg>
