<svg xmlns="http://www.w3.org/2000/svg" width="33" height="35" viewBox="0 0 33 35">
  <defs>
    <style>
      .cls-1 {
        fill: #00abc9;
        fill-rule: evenodd;
      }
    </style>
  </defs>
  <path id="Forma_1" data-name="Forma 1" class="cls-1" d="M805.652,2704.39v10.16h7.964v-10.16h-7.964Zm6.826,9.03h-5.687v-7.91h5.687v7.91Zm-17.069,4.51h18.207v1.13H795.409v-1.13Zm0,4.52h15.36v1.13h-15.36v-1.13Zm0,4.52h10.812v1.13H795.409v-1.13Zm0,4.52h4.549v1.13h-4.549v-1.13Zm5.694,0h3.417v1.13H801.1v-1.13Zm23.394-13.72-1.61-1.6a1.761,1.761,0,0,0-2.417,0l-3.444,3.42V2701h-14.45L792,2711.49V2736h25.033v-8.43l7.464-7.4A1.708,1.708,0,0,0,824.5,2717.77Zm-22.255-14.84v8.23h-8.3Zm13.652,31.94H793.139v-22.58h10.242v-10.16H815.9v18.59l-6.8,6.75-1.014,4.99,5.027-1,2.785-2.76v6.17h0Zm-5.479-7.12,1.611-1.6,2.417,2.39-1.611,1.6Zm1.264,2.85-2.146.43,0.431-2.13Zm3.562-2.85-2.416-2.4,7.242-7.19,0.806,0.8-2.819,2.8,0.805,0.8,2.819-2.8,0.806,0.8Zm8.451-8.38-0.4.4-2.416-2.4,0.4-.4a0.594,0.594,0,0,1,.806,0l1.611,1.6A0.537,0.537,0,0,1,823.692,2719.37Z" transform="translate(-792 -2701)"/>
</svg>
