<svg xmlns="http://www.w3.org/2000/svg" width="14" height="10" viewBox="0 0 14 10">
  <defs>
    <style>
      .cls-1 {
        fill: #009fe3;
        fill-rule: evenodd;
      }
    </style>
  </defs>
  <path id="social_icon" data-name="social icon" class="cls-1" d="M1255.43,4597.08c0.18,0.11.71,0.45,1.6,1.01s1.57,0.99,2.05,1.29c0.05,0.04.16,0.11,0.33,0.22l0.42,0.27c0.11,0.07.25,0.14,0.41,0.23a2.34,2.34,0,0,0,.44.19,1.605,1.605,0,0,0,.4.07h0.01a1.463,1.463,0,0,0,.39-0.07,2.734,2.734,0,0,0,.45-0.19c0.16-.09.3-0.16,0.41-0.23l0.42-.27c0.17-.11.28-0.18,0.33-0.22,0.48-.3,1.7-1.07,3.66-2.3a3.475,3.475,0,0,0,.95-0.88,1.771,1.771,0,0,0,.38-1.07,1.028,1.028,0,0,0-.37-0.8,1.284,1.284,0,0,0-.88-0.33h-11.5a1.135,1.135,0,0,0-.92.37,1.314,1.314,0,0,0-.33.92,1.617,1.617,0,0,0,.43.97A3.853,3.853,0,0,0,1255.43,4597.08Zm11.87,0.76c-1.71,1.05-3,1.86-3.89,2.44-0.3.2-.54,0.36-0.72,0.47a5.339,5.339,0,0,1-.74.34,2.344,2.344,0,0,1-.86.17h-0.01a2.306,2.306,0,0,1-.86-0.17,4.839,4.839,0,0,1-.74-0.34c-0.19-.11-0.43-0.27-0.72-0.47-0.71-.46-2-1.28-3.89-2.44a4.415,4.415,0,0,1-.79-0.62v5.63a1.061,1.061,0,0,0,.37.8,1.247,1.247,0,0,0,.88.34h11.5a1.215,1.215,0,0,0,.88-0.34,1.028,1.028,0,0,0,.37-0.8v-5.63A4.093,4.093,0,0,1,1267.3,4597.84Z" transform="translate(-1254.09 -4594)"/>
</svg>
